<?xml version="1.0" encoding="UTF-8"?><svg xmlns="http://www.w3.org/2000/svg" viewBox="0 0 192 192"><defs><style>.c{fill:#15115c;}.d{fill:#758be8;}.e{fill:none;}.f{fill:#26208b;}.g{fill:#5748a2;}</style></defs><g id="a"/><g id="b"><g><g><path class="e" d="M121.45,65.14c-4.59,2.98-8.75,5.72-12.16,8.03l-34.29-11.21c-3.41,2.11-6.47,4.72-9.1,7.72,.45,9.47,.91,18.26,1.38,24.83l-7,19.51c2.51,4.96,6.01,9.34,10.26,12.84,4.59-2.98,8.75-5.72,12.16-8.03l34.29,11.21c3.41-2.11,6.47-4.72,9.1-7.72-.45-9.47-.91-18.26-1.38-24.83l7-19.51c-2.51-4.96-6.01-9.34-10.26-12.84Z"/><path class="c" d="M127.04,143.27c-.3-6.9-.61-14.08-.94-20.94-2.63,3-5.69,5.61-9.1,7.72l-34.29-11.21c-18.29,12.3-45.52,29.24-62.71,40.39,35.81,28.62,86.95,.21,86.95,.21l4.26-3.43h16.38c-.18-4.06-.36-8.35-.55-12.73Z"/><path class="d" d="M140.76,52.74c-6.69,4.26-13.36,8.54-19.31,12.4,4.25,3.51,7.75,7.88,10.26,12.84l-7,19.51c1.52,22.24,2.46,51.68,3.63,74.5,42.69-16.7,43.66-75.2,43.66-75.2l-31.24-44.06Z"/><path class="g" d="M85.05,32.57l-4.26,3.43h-16.38c.48,10.93,.97,22.65,1.49,33.67,2.63-3,5.69-5.61,9.1-7.72l34.29,11.21c9.66-6.51,20.81-13.62,31.47-20.43h0c11.62-7.41,23.27-14.79,31.24-19.96-35.81-28.62-86.95-.21-86.95-.21Z"/><rect class="g" x="140.76" y="52.74" width="0" height="0" transform="translate(30.64 155.05) rotate(-63.43)"/><path class="f" d="M60.29,114.01l7-19.51c-1.52-22.24-2.46-51.68-3.63-74.5C20.96,36.7,20,95.2,20,95.2l31.24,44.06c6.68-4.26,13.36-8.54,19.31-12.4-4.25-3.51-7.75-7.88-10.26-12.84Z"/></g><rect class="e" y="0" width="192" height="192" rx="16" ry="16"/></g></g></svg>